# xmcd
#
# Track frame offsets:
#	150
#	19066
#	38250
#	57532
#	76138
#	93145
#	111423
#	130514
#	163533
#
# Disc length: 2478 seconds
#
# Revision: 0
# Processed by: cddbd v1.5.2PL0 Copyright (c) Steve Scherf et al.
# Submitted via: dBpowerAMP V4.0
#
DISCID=5f09ac09
DTITLE=Thunderhead - Thunderhead'75
DYEAR=1900
DGENRE=Blues Rock
TTITLE0=01. Busted In Georgia
TTITLE1=02. Roll Up The Hill
TTITLE2=03. Lay It On the Line 
TTITLE3=04. Make Your Own Good News
TTITLE4=05. Apathy
TTITLE5=06. Stop The Madness
TTITLE6=07. Hit And Run Driver
TTITLE7=08. Space Saver
TTITLE8=09. Houma
EXTD=
EXTT0=
EXTT1=
EXTT2=
EXTT3=
EXTT4=
EXTT5=
EXTT6=
EXTT7=
EXTT8=
PLAYORDER=
